<svg xmlns="http://www.w3.org/2000/svg" data-name="Layer 1" width="866.81043" height="539.32016" viewBox="0 0 866.81043 539.32016" xmlns:xlink="http://www.w3.org/1999/xlink">
  <path d="M685.70442,558.02931a3.61323,3.61323,0,0,1-2.63861-6.26426l.15352-.64881q-.03069-.06891-.06179-.13775a5.67318,5.67318,0,0,0-10.19348-.49607c-1.694,3.01437-3.89154,5.85126-4.8076,9.0955a11.45117,11.45117,0,0,0,.22858,6.44317,42.50519,42.50519,0,0,1-6.51431-20.26621,40.81361,40.81361,0,0,1,.56868-8.65949q.45368-2.9157,1.21175-5.76855a42.19606,42.19606,0,0,1,8.32582-16.94816,13.796,13.796,0,0,0,5.75722-4.31987,10.32975,10.32975,0,0,0,1.72911-6.69995l-.89047.07392c-3.57992.2981-6.02219-3.30493-7.01615-6.59768s-1.31818-7.00981-3.598-9.55209c-2.76472-3.08348-7.8972-3.24727-11.28691-5.64a9.11432,9.11432,0,0,1-3.04748-9.41135c.9519-3.78566,4.43891-6.40558,8.16986-7.6339a32.33169,32.33169,0,0,1,19.315-.57341c4.63782,1.22442,8.89678,3.311,13.307,5.0929,6.47072,2.60731,13.93164,4.98907,20.63137,2.69829,4.41236-1.51231,8.79427-5.58872,8.53709-10.29818a3.61324,3.61324,0,0,1,5.11257-3.44273q.12777.06524.25037.14261c3.33273,2.19322,4.21139,6.65741,3.77466,10.5542a20.62755,20.62755,0,0,1-7.51151,13.32447c4.87912,3.26462,5.995,10.5716,3.55106,15.93109s-7.4299,9.01453-12.50168,11.91075-10.41263,5.06866-15.26285,8.12839-9.48114,7.32739-11.00851,12.96111c-1.59985,5.88845.69158,12.52139-1.18335,18.32854a16.22694,16.22694,0,0,1-8.25859,10.08492,3.56133,3.56133,0,0,1-1.08861.37334Z" transform="translate(-166.59478 -180.33992)" fill="#f2f2f2"/>
  <path d="M773.62225,559.23563a2.56633,2.56633,0,0,0,1.74207-4.77088l-.11221-.454q.02245-.04814.045-.09621a3.9946,3.9946,0,0,1,7.19005-.02c1.17659,2.12272,2.7009,4.11708,3.354,6.39567a8.05267,8.05267,0,0,1-.19229,4.52576,29.82555,29.82555,0,0,0,4.55241-14.252,28.75155,28.75155,0,0,0-.3884-6.08741q-.31855-2.05638-.84751-4.05977a29.56118,29.56118,0,0,0-5.8813-11.91528,9.72126,9.72126,0,0,1-4.05111-3.03744,7.27927,7.27927,0,0,1-1.22647-4.7019l.62609.05162c2.52139.20887,4.229-2.32516,4.92405-4.63392s.9252-4.92529,2.52647-6.72152c1.94267-2.16789,5.55114-2.28227,7.92916-3.96564a6.41077,6.41077,0,0,0,2.13588-6.62027c-.66875-2.66209-3.12326-4.50668-5.74562-5.3704a22.72306,22.72306,0,0,0-13.57844-.40268c-3.26218.85952-6.24913,2.32736-9.35434,3.58247-4.547,1.83338-9.78862,3.50633-14.50865,1.89485-3.10313-1.06433-6.1794-3.93182-5.99162-7.25525a2.56632,2.56632,0,0,0-3.59385-2.4209c-.05754.03-.11442.06245-.17057.09738-2.33911,1.54281-2.95776,4.68176-2.65019,7.42786a14.51052,14.51052,0,0,0,5.29285,9.38653c-3.42783,2.29566-4.215,7.44217-2.49248,11.20877s5.22264,6.33723,8.78764,8.37825,7.31912,3.56266,10.73121,5.71586a23.19585,23.19585,0,0,1,6.711,6.25472c1.76158,2.43308,3.18208,5.06065,4.40956,7.77142a20.79535,20.79535,0,0,1,1.68109,8.37788c-.062,2.85071-.62412,5.82785.07549,8.58818a11.42117,11.42117,0,0,0,5.87077,7.08516,2.519,2.519,0,0,0,.76457.263Z" transform="translate(-166.59478 -180.33992)" fill="#f2f2f2"/>
  <path d="M342.62225,559.23563a2.56633,2.56633,0,0,0,1.74207-4.77088l-.11221-.454q.02245-.04814.045-.09621a3.9946,3.9946,0,0,1,7.19005-.02c1.17659,2.12272,2.7009,4.11708,3.354,6.39567a8.05267,8.05267,0,0,1-.19229,4.52576,29.82555,29.82555,0,0,0,4.55241-14.252,28.75155,28.75155,0,0,0-.3884-6.08741q-.31855-2.05638-.84751-4.05977a29.56118,29.56118,0,0,0-5.8813-11.91528,9.72126,9.72126,0,0,1-4.05111-3.03744,7.27927,7.27927,0,0,1-1.22647-4.7019l.62609.05162c2.52139.20887,4.229-2.32516,4.92405-4.63392s.9252-4.92529,2.52647-6.72152c1.94267-2.16789,5.55114-2.28227,7.92916-3.96564a6.41077,6.41077,0,0,0,2.13588-6.62027c-.66875-2.66209-3.12326-4.50668-5.74562-5.3704a22.72306,22.72306,0,0,0-13.57844-.40268c-3.26218.85952-6.24913,2.32736-9.35434,3.58247-4.547,1.83338-9.78862,3.50633-14.50865,1.89485-3.10313-1.06433-6.1794-3.93182-5.99162-7.25525a2.56632,2.56632,0,0,0-3.59385-2.4209c-.05754.03-.11442.06245-.17057.09738-2.33911,1.54281-2.95776,4.68176-2.65019,7.42786a14.51052,14.51052,0,0,0,5.29285,9.38653c-3.42783,2.29566-4.215,7.44217-2.49248,11.20877s5.22264,6.33723,8.78764,8.37825,7.31912,3.56266,10.73121,5.71586a23.19585,23.19585,0,0,1,6.711,6.25472c1.76158,2.43308,3.18208,5.06065,4.40956,7.77142a20.79535,20.79535,0,0,1,1.68109,8.37788c-.062,2.85071-.62412,5.82785.07549,8.58818a11.42117,11.42117,0,0,0,5.87077,7.08516,2.519,2.519,0,0,0,.76457.263Z" transform="translate(-166.59478 -180.33992)" fill="#f2f2f2"/>
  <polygon points="526.395 527.909 514.303 527.908 508.556 481.767 526.397 481.768 526.395 527.909" fill="#a0616a"/>
  <path d="M505.66923,524.46072h23.14386a0,0,0,0,1,0,0v14.88687a0,0,0,0,1,0,0H490.78235a0,0,0,0,1,0,0v0A14.88688,14.88688,0,0,1,505.66923,524.46072Z" fill="#2f2e41"/>
  <polygon points="580.909 514.365 569.583 518.418 549.755 476.229 566.441 470.232 580.909 514.365" fill="#a0616a"/>
  <path d="M732.11465,697.58481h23.14386a0,0,0,0,1,0,0v14.88687a0,0,0,0,1,0,0H717.22777a0,0,0,0,1,0,0v0A14.88688,14.88688,0,0,1,732.11465,697.58481Z" transform="translate(-279.3203 102.00213) rotate(-18.76035)" fill="#2f2e41"/>
  <path d="M524.21131,671.21369a4.75545,4.75545,0,0,1-.5369-3.55327l-16.16119-150.27042,68.39844,10.05409L559.12923,667.59164a4.81558,4.81558,0,0,1-4.22,5.11511l-26.08228,2.79523a4.81187,4.81187,0,0,1-4.61562-4.28829Z" transform="translate(-166.59478 -180.33992)" fill="#2f2e41"/>
  <path d="M587.5159,526.9873a4.772,4.772,0,0,1-2.83636-2.40343L525.28,470.14263l43.791-52.71125,39.40681,69.91632a4.81658,4.81658,0,0,1-1.37438,6.29327L590.85451,505.953a4.81136,4.81136,0,0,1-3.33861,21.03433Z" transform="translate(-166.59478 -180.33992)" fill="#2f2e41"/>
  <path d="M612.63121,371.25671c-11.89246-6.95359-26.70478-4.78568-33.94422,9.80155-4.45172,8.96161-10.59862,17.171-13.69237,26.90417a38.73319,38.73319,0,0,0-1.84778,12.356c.31213,6.71467,3.323,13.24527,8.18619,17.78862,4.83252,4.53164,11.27848,6.924,17.66811,6.33092,6.38877-.59294,12.49126-4.14181,16.02707-9.52627,3.53623-5.38525,4.46631-12.23785,3.12295-18.51321a29.95643,29.95643,0,0,0-9.1494-15.60556c-8.4573-7.41912-20.49833-10.75949-30.465-6.08-10.59991,4.97525-17.31609,18.58839-13.03481,29.76339a20.40549,20.40549,0,0,0,26.37518,9.93061c7.01693-3.14705,9.93921-13.49883,5.26433-19.65354-3.35181-4.40345-9.94815-6.20114-14.4758-3.08883-2.44841,1.68729-4.18425,4.67979-3.54689,7.62229a5.96313,5.96313,0,0,0,6.46037,4.96333,4.59632,4.59632,0,0,1,.0842,8.89475c-5.405.93829-10.95082-2.53871-12.88141-7.75446-2.066-5.58241-.18857-11.92074,3.50195-16.51191,4.52443-5.61385,11.46755-8.85195,18.51821-9.76758,14.09892-1.83533,28.83249,6.20331,33.28255,19.87334,3.02276,9.28354.03657,19.7156-7.27149,25.961-7.30786,6.24545-17.69647,7.34642-26.80481,5.20062s-17.27546-7.57691-23.06622-14.842c-12.76411-16.04211-13.81212-40.77054-.07928-56.04509,6.74945-7.51025,16.14706-12.05443,25.83362-13.59922s19.619.0834,28.577,3.99894c9.583,4.18146,18.37186,10.55884,26.49396,17.64351a57.73582,57.73582,0,0,1,18.63,35.46462,55.2023,55.2023,0,0,1-11.55395,39.01741c-13.26243,16.6193-36.95411,23.36539-57.97761,16.84838s-38.28764-26.9367-40.97051-48.99727a66.51116,66.51116,0,0,1,11.39165-44.87536,63.2196,63.2196,0,0,1,37.25339-26.45359" transform="translate(-166.59478 -180.33992)" fill="#6c63ff"/>
  <path d="M508.532,523.49034a10.52713,10.52713,0,0,1,.28172-16.42717l-9.55547-32.41515,16.404,4.29,7.28939,30.04029a10.4958,10.4958,0,0,1-14.41959,14.512Z" transform="translate(-166.59478 -180.33992)" fill="#a0616a"/>
  <path d="M490.71045,414.97967a4.81169,4.81169,0,0,1,2.01611-1.14913l27.64923-7.53474a13.37737,13.37737,0,0,1,16.27857,18.91934l-17.09641,35.29531a4.81688,4.81688,0,0,1-6.64371,2.03472l-25.79181-14.4279a4.81658,4.81658,0,0,1-1.56275-6.93329l13.12921-21.87841a1.25052,1.25052,0,0,0-.64125-1.83749l-4.8396-2.12627A4.74774,4.74774,0,0,1,490.71045,414.97967Z" transform="translate(-166.59478 -180.33992)" fill="#ccc"/>
  <path d="M555.02347,425.76549a4.47083,4.47083,0,0,1,3.549-1.74857l36.72006-20.4401a12.39863,12.39863,0,0,1,17.6504,13.35987l-7.58,32.21a4.50508,4.50508,0,0,1-5.97562,3.11638l-29.66717-12.21893a4.4731,4.4731,0,0,1-2.37137-5.84714l8.39049-19.76274a1.4129,1.4129,0,0,0-.709-1.84694l-6.1276-2.82056A4.45343,4.45343,0,0,1,555.02347,425.76549Z" transform="translate(-166.59478 -180.33992)" fill="#ccc"/>
  <polygon points="559.458 164.175 587.324 163.526 597.494 125.478 563.2 119.335 559.458 164.175" fill="#a0616a"/>
  <path d="M726.60122,384.18534,766.5,378l6.45225-30.84073-38.639-3.86687.09686,20.93272a10.67184,10.67184,0,0,1-7.81029,19.96022Z" transform="translate(-166.59478 -180.33992)" fill="#a0616a"/>
  <path d="M576.04969,308.73936a16.37488,16.37488,0,0,1,32.55367-1.06425l57.609,5.10791a8.51972,8.51972,0,0,1,7.71371,8.985l-4.79908,78.28666-87.04354-6.36183Z" transform="translate(-166.59478 -180.33992)" fill="#ccc"/>
  <circle cx="604.23669" cy="277.63224" r="23.17166" transform="translate(-208.55432 309.39816) rotate(-45)" fill="#a0616a"/>
  <path d="M586.44293,282.5557s3.05286-11.69756,13.9031-10.37561c0,0,10.37561-13.42813,25.44342-7.3227l8.47367-.94592s5.94366-13.49015,14.89623-8.47366-2.10772,25.4434-2.10772,25.4434-3.76446-9.23856-8.6594-6.26161-22.58716-1.63275-22.58716-1.63275-18.773,1.0582-21.53071,15.81715C594.32025,288.81842,586.96875,306.13911,586.44293,282.5557Z" transform="translate(-166.59478 -180.33992)" fill="#2f2e41"/>
  <path d="M743.7489,370.82035a4.89542,4.89542,0,0,1-1.20684,3.74561L721.2061,394.65112a13.77708,13.77708,0,0,1-19.12356-19.82528l24.30683-26.53121a4.89577,4.89577,0,0,1,7.49968.37074l9.46647,14.43988A4.905,4.905,0,0,1,743.7489,370.82035Z" transform="translate(-166.59478 -180.33992)" fill="#ccc"/>
  <rect x="269.35951" y="304" width="277" height="163" fill="#f2f2f2"/>
  <rect x="277.35951" y="312" width="261" height="147" fill="#fff"/>
  <rect x="304.35951" y="339" width="45" height="93" fill="#6c63ff"/>
  <rect x="376.35951" y="339" width="45" height="93" fill="#6c63ff" opacity="0.5"/>
  <rect x="448.35951" y="339" width="45" height="93" fill="#6c63ff" opacity="0.2"/>
  <circle cx="407.35951" cy="384" r="19" opacity="0.2"/>
  <rect y="537.32016" width="641" height="2" fill="#3f3d56"/>
</svg> 